<svg xmlns="http://www.w3.org/2000/svg" xmlns:xlink="http://www.w3.org/1999/xlink" width="549" height="148" viewBox="0 0 549 148">
  <defs>
    <linearGradient id="linear-gradient" x1="0.204" y1="-1.614" x2="0.648" y2="0.115" gradientUnits="objectBoundingBox">
      <stop offset="0" stop-color="#df1c00"/>
      <stop offset="1" stop-color="#f35369"/>
    </linearGradient>
    <filter id="Path_7" x="185.362" y="33.727" width="363.638" height="111.958" filterUnits="userSpaceOnUse">
      <feOffset dy="3" input="SourceAlpha"/>
      <feGaussianBlur stdDeviation="3" result="blur"/>
      <feFlood flood-opacity="0.161"/>
      <feComposite operator="in" in2="blur"/>
      <feComposite in="SourceGraphic"/>
    </filter>
    <filter id="Dev" x="0" y="0" width="199" height="148" filterUnits="userSpaceOnUse">
      <feOffset dy="3" input="SourceAlpha"/>
      <feGaussianBlur stdDeviation="3" result="blur-2"/>
      <feFlood flood-opacity="0.161"/>
      <feComposite operator="in" in2="blur-2"/>
      <feComposite in="SourceGraphic"/>
    </filter>
  </defs>
  <g id="Group_4" data-name="Group 4" transform="translate(-170 781)">
    <g transform="matrix(1, 0, 0, 1, 170, -781)" filter="url(#Path_7)">
      <path id="Path_7-2" data-name="Path 7" d="M57.869,21.436q-.547,7.845-4.379,12.361a20.691,20.691,0,0,1-9.624,6.385,40.3,40.3,0,0,1-12.452,1.87,25.333,25.333,0,0,1-10.262-2.463A38.566,38.566,0,0,1,10.434,32.2,46.877,46.877,0,0,1,1.312,19.794l.639-.639a59.4,59.4,0,0,0,7.8,5.108,69.385,69.385,0,0,0,8.256,3.877,56.978,56.978,0,0,0,7.617,2.417,26.255,26.255,0,0,0,5.7.821,12.636,12.636,0,0,0,7.252-2.007Q41.541,27.365,42,22.713v-.274q0-2.007-2.645-4.242a53.846,53.846,0,0,0-6.887-4.789l-8.94-5.382Q18.827,5.2,14.63,2.142A36.959,36.959,0,0,1,7.743-4.2a10.678,10.678,0,0,1-2.691-6.842v-.775a2.828,2.828,0,0,1,.091-.684,22.654,22.654,0,0,1,4.88-10.673,26.7,26.7,0,0,1,9.122-7.115,25.381,25.381,0,0,1,11.083-2.554,49.057,49.057,0,0,1,12.543,1.779A82.341,82.341,0,0,1,56.5-26L51.393-11.13A82.844,82.844,0,0,0,39.169-21.347,18.04,18.04,0,0,0,29.5-24.631q-4.926,0-7.526,2.417t-2.965,8.073v.274a6.045,6.045,0,0,0,2.1,4.2,30.762,30.762,0,0,0,5.565,4.242q3.466,2.144,7.617,4.379T42.59,3.6A69.174,69.174,0,0,1,50.207,8.71a27.048,27.048,0,0,1,5.565,5.656,10.775,10.775,0,0,1,2.1,6.34Zm62.4,11.494a75.39,75.39,0,0,1-7.389,6.2,10.25,10.25,0,0,1-5.747,2.281,4.975,4.975,0,0,1-3.6-1.6,14.921,14.921,0,0,1-2.965-5.154,24.828,24.828,0,0,1-6.933,4.151,33.148,33.148,0,0,1-8.848,2.235q-1.46.182-2.828.274t-2.645.091q-12.862,0-12.862-9.213a15,15,0,0,1,.182-2.281,24.313,24.313,0,0,1,.547-2.554,11.8,11.8,0,0,1,3.33-5.428,28.527,28.527,0,0,1,6.066-4.379q3.558-1.961,7.3-3.649t6.978-3.193a33.874,33.874,0,0,0,5.291-2.965q2.052-1.46,2.052-2.919,0-4.014-1-5.428T93.354-2.008q-2.007,0-6.2.365T77.938-.549A88.928,88.928,0,0,0,68.36,1.367L67.9.455a31.3,31.3,0,0,1,6.34-4.561,65.283,65.283,0,0,1,8.3-3.923,62.254,62.254,0,0,1,8.8-2.737,35.837,35.837,0,0,1,7.936-1,23.53,23.53,0,0,1,8.438,1.14,6.4,6.4,0,0,1,3.74,4.47,38.75,38.75,0,0,1,.958,9.989V26.909a13.259,13.259,0,0,0,.593,4.7q.593,1.414,2.782,1.414a10.66,10.66,0,0,0,1.779-.182q1.049-.182,2.326-.456ZM98.919,12.77a37,37,0,0,1-5.336,3.694q-3.33,1.961-6.431,4.2a14.843,14.843,0,0,0-4.561,4.972,10.29,10.29,0,0,0-1.277,4.47,4.167,4.167,0,0,0,1.14,3.01A4.282,4.282,0,0,0,85.692,34.3q.456,0,.958-.046a9.075,9.075,0,0,0,.958-.137q1.824-.456,4.242-1.277a34.19,34.19,0,0,0,4.561-1.916,9.77,9.77,0,0,0,3.056-2.189Zm32.748,41.779,12.953-21.072L122.089-7.846l15.873-3.923,11.676,37.036L171.987-11.4h1.277L146.993,61.117Zm54.55,0,12.953-21.072L176.64-7.846l15.873-3.923,11.676,37.036L226.538-11.4h1.277L201.543,61.117Zm94.505-13.136a178.832,178.832,0,0,1-23.444-1.277q-9.4-1.277-14.869-4.2a17.721,17.721,0,0,1-7.845-7.663,25.71,25.71,0,0,1-2.372-11.585,32.931,32.931,0,0,1,3.284-15.234,24.772,24.772,0,0,1,8.62-9.806,20.541,20.541,0,0,1,11.266-3.421,33.013,33.013,0,0,1,9.578,1.46,27.444,27.444,0,0,1,9.031,4.744,24.606,24.606,0,0,1,6.842,8.62,32.828,32.828,0,0,1,3.01,13.09l-38.769,4.379a14.551,14.551,0,0,0,4.607,8.529q3.786,3.512,11.448,6.157a158.229,158.229,0,0,0,19.977,5.108ZM268.591,8.665a20.292,20.292,0,0,0-2.1-6.75,15.047,15.047,0,0,0-4.2-5.154A9.069,9.069,0,0,0,256.641-5.2a11.226,11.226,0,0,0-6.294,1.733q-2.645,1.733-4.1,6.614t-1.46,14.276v.867a4.422,4.422,0,0,0,.091.867ZM346.95,32.93A66.148,66.148,0,0,1,339.516,39a11.458,11.458,0,0,1-6.249,2.417,4.544,4.544,0,0,1-3.694-1.916q-1.505-1.916-2.144-6.568A26.769,26.769,0,0,1,318.763,39a28.671,28.671,0,0,1-12.041,2.417q-8.666,0-12.908-5.428t-4.242-15.1q0-25.086,35.759-31.654l-.912-20.16h15.964l-1.277,55.371v2.463a13.26,13.26,0,0,0,.593,4.7q.593,1.414,2.782,1.414a10.66,10.66,0,0,0,1.779-.182q1.049-.182,2.326-.456ZM325.513-6.478Q313.654-1.461,308.455,5.29a23.813,23.813,0,0,0-5.2,14.869q0,6.2,2.1,9.031a7.138,7.138,0,0,0,6.112,2.828,28.084,28.084,0,0,0,7.708-1.049,45.743,45.743,0,0,0,7.891-3.147Z" transform="translate(193.05 72.57)" fill="url(#linear-gradient)"/>
    </g>
    <g transform="matrix(1, 0, 0, 1, 170, -781)" filter="url(#Dev)">
      <text id="Dev-2" data-name="Dev" transform="translate(9 110)" fill="#2a1b3d" font-size="90" font-family="ReggaeOne-Regular, Reggae One"><tspan x="0" y="0">Dev</tspan></text>
    </g>
  </g>
</svg>
