<svg xmlns="http://www.w3.org/2000/svg" xmlns:xlink="http://www.w3.org/1999/xlink" width="217" height="66" viewBox="0 0 217 66"><defs><style>.a{fill:url(#a);}.b{fill:#2a1b3d;font-size:33px;font-family:ReggaeOne-Regular, Reggae One;}.c{filter:url(#d);}.d{filter:url(#b);}</style><linearGradient id="a" x1="0.5" y1="0.225" x2="0.544" y2="1" gradientUnits="objectBoundingBox"><stop offset="0" stop-color="#df1c00"/><stop offset="1" stop-color="#f35369"/></linearGradient><filter id="b" x="68.165" y="10.515" width="148.835" height="53.566" filterUnits="userSpaceOnUse"><feOffset dy="3" input="SourceAlpha"/><feGaussianBlur stdDeviation="3" result="c"/><feFlood flood-opacity="0.161"/><feComposite operator="in" in2="c"/><feComposite in="SourceGraphic"/></filter><filter id="d" x="0" y="0" width="85" height="66" filterUnits="userSpaceOnUse"><feOffset dy="3" input="SourceAlpha"/><feGaussianBlur stdDeviation="3" result="e"/><feFlood flood-opacity="0.161"/><feComposite operator="in" in2="e"/><feComposite in="SourceGraphic"/></filter></defs><g transform="translate(-213 644)"><g class="d" transform="matrix(1, 0, 0, 1, 213, -644)"><path class="a" d="M22.721-12.3a7.89,7.89,0,0,1-1.657,4.679A7.832,7.832,0,0,1,17.42-5.2a15.256,15.256,0,0,1-4.713.708,9.589,9.589,0,0,1-3.885-.932,14.6,14.6,0,0,1-4.057-2.8,17.745,17.745,0,0,1-3.453-4.7l.242-.242a22.486,22.486,0,0,0,2.952,1.934A26.264,26.264,0,0,0,7.631-9.758a21.568,21.568,0,0,0,2.883.915,9.938,9.938,0,0,0,2.158.311,4.783,4.783,0,0,0,2.745-.76,3.228,3.228,0,0,0,1.295-2.521v-.1a2.276,2.276,0,0,0-1-1.606A20.382,20.382,0,0,0,13.1-15.334L9.72-17.371Q7.942-18.442,6.353-19.6A13.99,13.99,0,0,1,3.746-22a4.042,4.042,0,0,1-1.019-2.59v-.294a1.071,1.071,0,0,1,.035-.259,8.575,8.575,0,0,1,1.847-4.04,10.108,10.108,0,0,1,3.453-2.693,9.608,9.608,0,0,1,4.2-.967,18.57,18.57,0,0,1,4.748.673,31.168,31.168,0,0,1,5.2,1.916l-1.934,5.628a31.359,31.359,0,0,0-4.627-3.867,6.829,6.829,0,0,0-3.66-1.243,4.036,4.036,0,0,0-2.849.915,4.437,4.437,0,0,0-1.122,3.056v.1a2.288,2.288,0,0,0,.794,1.588,11.644,11.644,0,0,0,2.106,1.606q1.312.811,2.883,1.657t3.142,1.761a26.185,26.185,0,0,1,2.883,1.934,10.239,10.239,0,0,1,2.106,2.141,4.079,4.079,0,0,1,.794,2.4ZM46.339-7.945a28.538,28.538,0,0,1-2.8,2.348,3.88,3.88,0,0,1-2.175.863A1.883,1.883,0,0,1,40-5.338a5.648,5.648,0,0,1-1.122-1.951,9.4,9.4,0,0,1-2.624,1.571,12.548,12.548,0,0,1-3.349.846q-.552.069-1.07.1t-1,.035q-4.869,0-4.869-3.488a5.679,5.679,0,0,1,.069-.863,9.2,9.2,0,0,1,.207-.967,4.468,4.468,0,0,1,1.26-2.055,10.8,10.8,0,0,1,2.3-1.657q1.347-.742,2.762-1.381T35.2-16.353a12.822,12.822,0,0,0,2-1.122q.777-.552.777-1.1a3.844,3.844,0,0,0-.38-2.055,1.673,1.673,0,0,0-1.45-.535q-.76,0-2.348.138t-3.488.414a33.662,33.662,0,0,0-3.626.725l-.173-.345a11.848,11.848,0,0,1,2.4-1.727,24.712,24.712,0,0,1,3.142-1.485,23.565,23.565,0,0,1,3.332-1.036,13.565,13.565,0,0,1,3-.38,8.907,8.907,0,0,1,3.194.432,2.421,2.421,0,0,1,1.416,1.692,14.668,14.668,0,0,1,.363,3.781v8.736a5.019,5.019,0,0,0,.224,1.778q.224.535,1.053.535a4.035,4.035,0,0,0,.673-.069q.4-.069.881-.173Zm-8.08-7.631a14,14,0,0,1-2.02,1.4q-1.26.742-2.434,1.588a5.618,5.618,0,0,0-1.727,1.882,3.9,3.9,0,0,0-.483,1.692,1.577,1.577,0,0,0,.432,1.139,1.621,1.621,0,0,0,1.226.449q.173,0,.363-.017a3.433,3.433,0,0,0,.363-.052q.691-.173,1.606-.483A12.942,12.942,0,0,0,37.31-8.7a3.7,3.7,0,0,0,1.157-.829ZM50.656.239l4.9-7.976L47.03-23.38l6.008-1.485,4.42,14.019,8.46-13.881H66.4L56.457,2.725ZM71.3.239l4.9-7.976L67.679-23.38l6.008-1.485,4.42,14.019,8.46-13.881h.483L77.106,2.725Zm35.773-4.972A67.694,67.694,0,0,1,98.2-5.217a17.006,17.006,0,0,1-5.628-1.588,6.708,6.708,0,0,1-2.97-2.9,9.732,9.732,0,0,1-.9-4.385,12.466,12.466,0,0,1,1.243-5.767,9.377,9.377,0,0,1,3.263-3.712,7.775,7.775,0,0,1,4.264-1.295,12.5,12.5,0,0,1,3.626.552,10.388,10.388,0,0,1,3.418,1.8,9.314,9.314,0,0,1,2.59,3.263,12.426,12.426,0,0,1,1.139,4.955L93.577-12.641A5.508,5.508,0,0,0,95.32-9.412a12.265,12.265,0,0,0,4.334,2.331,59.894,59.894,0,0,0,7.562,1.934Zm-4.593-12.4a7.681,7.681,0,0,0-.794-2.555,5.7,5.7,0,0,0-1.588-1.951,3.433,3.433,0,0,0-2.141-.742,4.249,4.249,0,0,0-2.383.656,4.356,4.356,0,0,0-1.554,2.5,20.021,20.021,0,0,0-.552,5.4v.328a1.674,1.674,0,0,0,.035.328Zm29.661,9.185a25.038,25.038,0,0,1-2.814,2.3,4.337,4.337,0,0,1-2.365.915,1.72,1.72,0,0,1-1.4-.725,5.33,5.33,0,0,1-.811-2.486,10.133,10.133,0,0,1-3.28,2.3,10.853,10.853,0,0,1-4.558.915,5.817,5.817,0,0,1-4.886-2.055,9.071,9.071,0,0,1-1.606-5.715q0-9.5,13.536-11.982l-.345-7.631h6.043l-.483,20.96v.932a5.019,5.019,0,0,0,.224,1.778q.224.535,1.053.535a4.034,4.034,0,0,0,.673-.069q.4-.069.881-.173Zm-8.115-14.917a15.676,15.676,0,0,0-6.457,4.454,9.014,9.014,0,0,0-1.968,5.628A5.8,5.8,0,0,0,116.4-9.36a2.7,2.7,0,0,0,2.314,1.07,10.631,10.631,0,0,0,2.918-.4,17.315,17.315,0,0,0,2.987-1.191Z" transform="translate(75.85 49.36)"/></g><g class="c" transform="matrix(1, 0, 0, 1, 213, -644)"><text class="b" transform="translate(9 44)"><tspan x="0" y="0">Dev</tspan></text></g></g></svg>